<svg class="icon" viewBox="0 0 1024 1024" xmlns="http://www.w3.org/2000/svg" width="128" height="128"><defs><style/></defs><path d="M545.093 641.835a133.009 133.009 0 0 1 21.738-66.689 299.179 299.179 0 0 0 52.32-106.113 142.589 142.589 0 0 0 51.214-95.428c3.316-56.74-10.685-59.688-10.685-59.688 20.633-61.9 26.897-294.758-122.693-267.861-23.58-49.372-180.539-87.69-253.86 43.108a276.335 276.335 0 0 0-21.37 226.964c0 5.158-9.948-5.158-13.264 28.002a168.38 168.38 0 0 0 27.634 100.218 62.636 62.636 0 0 0 25.422 18.79 270.809 270.809 0 0 0 54.162 110.535 61.9 61.9 0 0 1-32.423 65.952C181.067 668.732 51.005 747.211 51.005 832.322v65.952c16.58 119.008 339.708 110.534 557.829 105.744a20.265 20.265 0 0 0 6.264-26.528 117.166 117.166 0 0 0-55.636-42.371c0-1.843-6.632-2.948-7.369-4.79a97.638 97.638 0 0 1-8.474-58.952s.737-226.227 1.474-229.543z" fill="#1296db"/><path d="M913.54 578.462H670.733a57.478 57.478 0 0 0-58.952 55.267v253.86a69.268 69.268 0 0 0 14.738 33.16l140.01 95.797a39.792 39.792 0 0 0 25.792 7.369 32.792 32.792 0 0 0 25.422-11.054l136.325-92.112a36.845 36.845 0 0 0 18.423-29.475v-253.86a52.688 52.688 0 0 0-58.952-58.952zm2.58 145.168l-51.952 50.109 12.896 69.636a11.79 11.79 0 0 1-4.79 12.16 11.422 11.422 0 0 1-7.37 2.578 15.475 15.475 0 0 1-5.894 0l-65.215-32.054-65.584 32.054a15.475 15.475 0 0 1-5.527 0 11.422 11.422 0 0 1-7.737-2.579 12.527 12.527 0 0 1-4.79-12.158l13.633-69.637-51.952-48.267a12.159 12.159 0 0 1-3.316-12.895 12.896 12.896 0 0 1 10.317-8.475l72.216-14.369 31.318-63.373a12.896 12.896 0 0 1 22.843 0l32.055 64.847 71.847 12.527a12.896 12.896 0 0 1 9.949 8.474 12.527 12.527 0 0 1-2.948 11.422z" fill="#1296db"/></svg>
