<svg class="icon" viewBox="0 0 1024 1024" xmlns="http://www.w3.org/2000/svg" width="128" height="128"><defs><style/></defs><path d="M199.24399999999997 312.756a284.324 284.324 0 1 0 568.647 0 284.324 284.324 0 1 0-568.647 0z" fill="#FFD201"/><path d="M31.493 995.132C59.926 770.517 250.423 597.08 483.568 597.08S907.21 770.517 935.642 995.132" fill="#FFD201"/><path d="M483.568 625.512c-173.438 0-312.756-139.319-312.756-312.756S310.13 0 483.568 0s312.756 139.319 312.756 312.756-139.319 312.756-312.756 312.756zm0-568.647c-142.162 0-255.892 113.73-255.892 255.89s113.73 255.892 255.892 255.892 255.89-113.73 255.89-255.891S625.73 56.865 483.569 56.865z" fill="#333"/><path d="M31.493 1023.565H28.65c-14.216-2.844-25.59-17.06-25.59-31.276 31.276-241.675 235.99-423.642 480.508-423.642 244.518 0 449.23 181.967 480.506 423.642 2.844 14.216-8.53 28.432-25.589 31.276-14.216 2.843-28.432-8.53-31.275-25.59-25.59-213.242-207.556-372.463-423.642-372.463-216.086 0-398.053 159.22-423.642 372.464 0 14.216-14.217 25.589-28.433 25.589z" fill="#333"/></svg>