<svg class="icon" viewBox="0 0 1024 1024" xmlns="http://www.w3.org/2000/svg" width="128" height="128"><defs><style/></defs><path d="M190.171 592.457c7.315 0 14.629 0 21.943-7.314l241.372-219.429L629.029 512h29.257c7.314 0 14.628-7.314 21.943-14.629l197.485-263.314c14.629-14.628 14.629-36.571 0-43.886-14.628-14.628-36.571-7.314-43.885 7.315L650.97 431.543 475.43 292.57c-14.629-14.628-36.572-14.628-43.886 0L168.229 533.943c-14.629 14.628-14.629 36.571 0 51.2 0 0 14.628 7.314 21.942 7.314zm636.343-197.486c-7.314 0-14.628 7.315-14.628 21.943V819.2c0 14.629 7.314 21.943 14.628 21.943h58.515c7.314 0 14.628-7.314 14.628-21.943V416.914c0-14.628-7.314-21.943-14.628-21.943h-58.515zm-204.8 204.8c-7.314 0-14.628 7.315-14.628 21.943v204.8c0 14.629 7.314 21.943 14.628 21.943h58.515c7.314 0 14.628-7.314 14.628-21.943v-204.8c0-14.628-7.314-21.943-14.628-21.943h-58.515zm-409.6 0c-7.314 0-14.628 7.315-14.628 21.943v204.8c0 14.629 7.314 21.943 14.628 21.943h58.515c7.314 0 14.628-7.314 14.628-21.943v-204.8c0-14.628-7.314-21.943-14.628-21.943h-58.515z" fill="#d4237a"/><path d="M424.229 438.857c-14.629 0-21.943 7.314-21.943 21.943v365.714c0 14.629 7.314 21.943 14.628 21.943h58.515c7.314 0 14.628-7.314 14.628-21.943V460.8c7.314-14.629 0-21.943-7.314-21.943h-58.514z" fill="#d4237a"/><path d="M972.8 870.4H146.286V51.2c0-29.257-21.943-51.2-43.886-51.2S51.2 21.943 51.2 51.2v826.514H0V972.8h51.2v51.2h95.086v-51.2H972.8c29.257 0 51.2-21.943 51.2-51.2s-21.943-51.2-51.2-51.2z" fill="#d4237a"/></svg>