<svg class="icon" viewBox="0 0 1024 1024" xmlns="http://www.w3.org/2000/svg" width="128" height="128"><defs><style/></defs><path d="M764 972L474.4 685.6l142.4-162L938 774c5.6 3.6 11.2 7.6 16.4 12 1.2 1.2 2.4 2.4 3.6 3.2l3.2 2.4-.4.4c49.2 49.2 52.4 128.8 5.6 182-46.8 53.2-126 60-181.2 17.6l-.4.4-2.8-2.8c-1.2-1.2-2.4-2-3.6-2.8-5.2-4-10-9.2-14.4-14.4z" fill="#29ABE2"/><path d="M294.4 445.6l-142.8-50-.4.4L6 197.6l68-77.2 214.8 120.4-.8.4 68 134 226 198.4-62 70.8z" fill="#E6E6E6"/><path d="M74.4 123.2l210.8 118 .8.4.8 2L354 376l.4.8.4.4 224 197.2-58.8 67.2-224-197.2-.4-.4-.8-.4L153.6 394l-2-.8-.4-.8L8.4 197.6l66-74.4m-.8-5.2l-70 79.2 144.4 198-.8.8 2 .8 2 2.8 1.2-1.6 140.8 49.6 227.2 199.6 64.8-73.6L358 374l-67.6-132.4 1.2-1.6-2.8-1.6-.8-1.6-.8.8L73.6 118z" fill="#CCC"/><path d="M578.8 574l320.4 282M574.68 578.756l7.92-9.012L903.128 851.56l-7.924 9.012zM552.4 610.8L870 889.2M548.48 615.12l7.92-9.02 317.516 278.576-7.916 9.02zM520 640.8l320.4 282M516.16 645.304l7.928-9.012 320.524 281.816-7.92 9.012z" fill="#0071BC"/><path d="M134.4 1011.6c-35.2 0-68.4-14-93.2-38.8C-7.2 924-9.2 845.2 36.4 793.6l1.2-1.6 1.6-1.2c.4-.8 1.2-1.2 1.6-1.6.4-.8 1.2-1.2 2-2 4.4-4.4 9.2-8.4 15.6-12.8L596.8 300l-16-61.2c-12.4-46.8 1.6-97.2 36-131.2L678 47.2C703.6 22 737.6 8 773.6 8c12 0 24.4 1.6 36 4.8l23.2 6.4-107.2 106 27.6 143.6L896.4 298l107.2-106 6 23.6c12.4 46.8-1.6 97.2-36 131.2l-61.2 60.4c-25.6 25.2-59.6 39.2-95.6 39.2-12 0-24.4-1.6-36-4.8L720 424.8 240.4 958.4c-4.8 6.4-8.8 11.2-13.2 15.6-.8.8-1.2 1.2-2 1.6-.4.4-1.2.8-1.6 1.2l-1.6 1.6-1.6 1.2c-23.6 20.8-54.4 32-86 32z" fill="#E6E6E6"/><path d="M773.2 10c12 0 24 1.6 35.6 4.8l20 5.6-104 103.2-1.6 1.6.4 2 27.2 141.2.4 2.8 2.8.4 140.8 28.8 2 .4 1.6-1.6 104-103.2 5.2 20c12 46.4-1.6 95.6-35.6 129.2l-61.2 60.4c-25.2 24.8-58.8 38.8-94.4 38.8-12 0-24-1.6-35.6-4.8l-59.6-16.4-2.4-.8-1.6 2-478.4 532.4c-4.4 6-8.4 10.8-12.8 15.2-.8.8-1.2 1.2-2 1.6-.4.4-1.2.8-1.6 1.2l-2.4 2c-23.6 20.4-53.6 31.6-84.8 31.6-34.8 0-67.2-13.6-92-38.4-47.6-48.4-50-126-4.8-176.8L40 792h.4c.4-.4.8-1.2 1.2-1.6.4-.8 1.2-1.2 1.6-2 4.4-4.4 9.2-8.4 15.2-12.8l538.8-473.2 2-1.6-.8-2.4-15.6-60c-12-46.4 1.6-95.6 35.6-129.2l61.2-60.4C704.4 24 738 10 773.2 10m0-4c-36 0-70.8 14-97.2 40l-61.2 60.4c-35.2 34.8-49.2 85.6-36.4 133.2l15.6 60L56.4 772.4c-5.6 4-10.8 8.4-15.6 13.2-1.2 1.2-2 2.4-3.2 3.6l-3.2 2.8.4.4c-46 52-44.8 132 4.8 182 26 26.4 60.4 39.6 94.8 39.6 31.2 0 62.4-10.8 87.2-32.4l.4.4 2.8-3.2c1.2-1.2 2.4-2 3.6-3.2 4.8-4.8 9.2-10 13.2-15.6l478.8-532.4L780 444c12 3.2 24.4 4.8 36.4 4.8 36 0 70.8-14 97.2-40l61.2-60.8c35.2-34.8 49.2-85.6 36.4-133.2L1004 188 894.8 296 754 267.2 726.8 126 836 18l-26.8-7.2c-11.6-3.2-23.6-4.8-36-4.8z" fill="#CCC"/></svg>