<svg class="icon" viewBox="0 0 1024 1024" xmlns="http://www.w3.org/2000/svg" width="128" height="128"><defs><style/></defs><path d="M839.74 959.32h-651.9a81.49 81.49 0 0 1-81.48-81.49v-651.9a81.48 81.48 0 0 1 81.48-81.48h651.9a81.49 81.49 0 0 1 81.49 81.48v651.9a81.5 81.5 0 0 1-81.49 81.49zM835 877.83v-651.9H192.64v651.9z" fill="#fc107c"/><path d="M310.07 62.96h.01q40.74 0 40.74 40.74v162.98q0 40.74-40.74 40.74h-.01q-40.74 0-40.74-40.74V103.7q0-40.74 40.74-40.74zM513.79 62.96h.01q40.74 0 40.74 40.74v162.98q0 40.74-40.74 40.74h-.01q-40.74 0-40.74-40.74V103.7q0-40.74 40.74-40.74zM717.51 62.96h.01q40.74 0 40.74 40.74v162.98q0 40.74-40.74 40.74h-.01q-40.74 0-40.74-40.74V103.7q0-40.74 40.74-40.74zM310.07 388.91h407.44q40.74 0 40.74 40.74v.01q0 40.74-40.74 40.74H310.07q-40.74 0-40.74-40.74v-.01q0-40.74 40.74-40.74zM310.07 551.88h407.44q40.74 0 40.74 40.74v.01q0 40.74-40.74 40.74H310.07q-40.74 0-40.74-40.74v-.01q0-40.74 40.74-40.74zM310.07 714.86h407.44q40.74 0 40.74 40.74v.01q0 40.74-40.74 40.74H310.07q-40.74 0-40.74-40.74v-.01q0-40.74 40.74-40.74z" fill="#fc107c"/></svg>