<svg class="icon" viewBox="0 0 1024 1024" xmlns="http://www.w3.org/2000/svg" width="128" height="128"><defs><style/></defs><path d="M893.115 703.971a412.66 412.66 0 0 1-548.66 33.027l-98.767 98.406 118.386 118.023a40.034 40.034 0 0 1-56.753 56.487L188.935 891.915l-120.609 120.15a39.333 39.333 0 1 1-55.69-55.57L133.222 836.37 14.545 718.13a39.357 39.357 0 0 1 .483-56.005 39.768 39.768 0 0 1 56.246-.507L189.95 779.835l98.574-98.188a412.49 412.49 0 1 1 604.59 22.324zm-51.752-520.754a332.447 332.447 0 1 0-4.204 465.016 331.288 331.288 0 0 0 4.204-465.016z" fill="#F1309B"/></svg>