<svg class="icon" viewBox="0 0 1024 1024" xmlns="http://www.w3.org/2000/svg" width="128" height="128"><defs><style/></defs><path d="M512.512 0h-.141C342.912 0 176.993 128 176.993 300.138c0 228.045 123.586 335.448 123.586 335.448s-25.472 52.059-33.13 99.302h92.604c-8.455-49.435-6.508-99.302-6.508-99.302s476.69-86.804 476.69-335.448C830.234 130.679 681.97 0 512.511 0z" fill="#FF9656"/><path d="M660.513 35.132C615.762 12.652 565.17 0 512.512 0h-.139c-169.461 0-335.38 128-335.38 300.138 0 228.045 123.586 335.448 123.586 335.448s-25.494 52.06-33.154 99.302h92.624c-8.455-49.435-6.504-99.302-6.504-99.302s50.54-9.26 118.587-30.206L229.96 366.466S580.652 243.388 660.513 35.132z" fill="#EF8C56"/><path d="M846.539 913.635l-3.368-11.535a11.641 11.641 0 0 0-12.639-8.278l-11.771-88.28c-3.867-29.004-21.837-54.197-51.43-68.992l-34.679-17.34c-5.616-2.807-9.904.805-14.03 5.394L642.519 696.6a35.31 35.31 0 0 1-24.143-33.498v-56.943l76.051-31.688a105.931 105.931 0 0 0 65.19-97.784v-17.655c29.252 0 52.966-23.713 52.966-52.965S788.868 353.1 759.616 353.1v-35.31c0-48.753-39.523-123.586-88.276-123.586H353.547c-48.755 0-88.276 74.833-88.276 123.586v35.31c-29.252 0-52.965 23.713-52.965 52.966s23.713 52.965 52.965 52.965v17.655a105.931 105.931 0 0 0 65.187 97.784l76.055 31.69v56.94a35.31 35.31 0 0 1-24.144 33.5l-76.105 28.003c-4.124-4.589-8.412-8.203-14.029-5.394l-34.68 17.34c-29.594 14.797-47.562 39.99-51.429 68.992l-11.771 88.28a11.641 11.641 0 0 0-12.64 8.278l-3.367 11.535a11.648 11.648 0 0 0 7.92 14.447l26.04 7.596v53.012c0 19.5 15.81 35.31 35.31 35.31h529.655c19.5 0 35.31-15.81 35.31-35.31v-53.012l26.04-7.596a11.648 11.648 0 0 0 7.916-14.447z" fill="#FFD7A3"/><path d="M618.372 604.317l-211.862.364v58.42a35.3 35.3 0 0 1-17.108 30.237c147.693 25.519 228.964-89.012 228.97-89.021z" fill="#FDC88E"/><path d="M818.76 805.542c-3.866-29.004-21.836-54.197-51.429-68.992l-34.679-17.34c-6.41-3.204-11.09 1.955-15.77 7.382-94.094 109.09-204.436 156.175-204.436 156.175h-.005S402.1 835.681 308.006 726.592c-4.681-5.427-9.362-10.586-15.771-7.382l-34.68 17.34c-29.594 14.797-47.562 39.99-51.429 68.992l-14.371 107.776c46.638 16.06 126.48 40.061 126.48 40.061V1024h388.413v-70.62s79.841-24.003 126.484-40.062l-14.371-107.776z" fill="#9BCE7A"/><path d="M759.614 353.103v-35.31c0-48.752-39.524-123.586-88.276-123.586H353.545c-48.755 0-88.276 74.834-88.276 123.586v35.302c-29.252 0-52.966 23.713-52.966 52.965s23.714 52.966 52.966 52.966v17.664a105.931 105.931 0 0 0 65.187 97.783l114.077 47.532a176.567 176.567 0 0 0 135.81 0l114.083-47.534a105.931 105.931 0 0 0 65.19-97.784v-17.655c29.252 0 52.966-23.713 52.966-52.965s-23.716-52.964-52.968-52.964z" fill="#FFE1B2"/><path d="M636.028 423.724c-9.71 0-17.656-7.945-17.656-17.655v-17.655c0-9.71 7.945-17.655 17.656-17.655s17.655 7.944 17.655 17.655v17.655c0 9.71-7.945 17.655-17.655 17.655z" fill="#623F33"/><path d="M512.441 547.794c-31.388 0-60.749-7.724-80.551-21.198a17.649 17.649 0 0 1-4.664-24.525c5.474-8.05 16.466-10.147 24.526-4.663 13.879 9.439 36.568 15.078 60.69 15.078s46.81-5.64 60.689-15.078a17.638 17.638 0 0 1 24.525 4.663 17.649 17.649 0 0 1-4.663 24.525c-19.802 13.474-49.163 21.198-80.552 21.198z" fill="#E4B07B"/><path d="M265.269 353.103c-29.252 0-52.966 23.714-52.966 52.966s23.714 52.965 52.966 52.965v17.656a105.931 105.931 0 0 0 65.187 97.783l114.075 47.532a176.806 176.806 0 0 0 17.052 6.067c-50.414-36.88-83.972-69.12-103.635-90.2-14.306-15.336-22.058-35.578-22.058-56.552v-92.906s294.252-36.783 370.758-158.897c4.471-7.135 7.559-13.61 9.44-19.491-172.16 98.922-450.819 143.077-450.819 143.077z" fill="#FFD7A3"/><path d="M317.798 947.986c-1.08-20.995-8.089-41.28-20.75-58.163L214.164 779.31c-4.001 8.24-6.813 17.011-8.044 26.234l-13.994 104.962 125.672 37.48z" fill="#8ABE69"/><path d="M178.344 913.635a11.648 11.648 0 0 0 7.918 14.447l131.97 38.497v-13.2c0-8.34-1.31-16.51-3.224-24.525l-118.855-34.67a11.646 11.646 0 0 0-14.442 7.918l-3.367 11.533z" fill="#76AB5F"/><path d="M707.085 947.986c1.08-20.995 8.089-41.28 20.75-58.163l82.884-110.513c4.001 8.24 6.813 17.011 8.044 26.234l13.994 104.962-125.672 37.48z" fill="#8ABE69"/><path d="M846.539 913.635a11.648 11.648 0 0 1-7.918 14.447l-131.973 38.497v-13.2c0-8.34 1.311-16.51 3.225-24.525l118.854-34.67a11.646 11.646 0 0 1 14.442 7.918l3.37 11.533zM353.545 653.241h-52.966a17.655 17.655 0 0 1 0-35.31h52.966a17.655 17.655 0 0 1 0 35.31z" fill="#76AB5F"/><path d="M229.959 187.577v178.89C505.578 333.644 636.096 275.561 695.58 236c4.383 64.689 3.213 161.763-26.997 258.346 0 0 105.675-147.38 89.293-306.767l-527.918-.003z" fill="#FF9656"/><path d="M388.855 423.724c-9.71 0-17.655-7.945-17.655-17.655v-17.655c0-9.71 7.945-17.655 17.655-17.655s17.655 7.944 17.655 17.655v17.655c0 9.71-7.944 17.655-17.655 17.655z" fill="#623F33"/><path d="M229.959 187.577v178.89c.02-.007 183.64-64.416 315.438-178.89H229.959z" fill="#EF8C56"/></svg>