<svg class="icon" viewBox="0 0 1024 1024" xmlns="http://www.w3.org/2000/svg" width="128" height="128"><defs><style/></defs><path d="M839.452 964.034l-21.133-158.492a88.271 88.271 0 0 0-48.024-67.29l-38.03-19.015c-5.665-2.834-12.16-.32-14.931 5.054l-75.262-27.692a35.31 35.31 0 0 1-24.143-33.499v-56.942l76.051-31.689a105.922 105.922 0 0 0 65.192-97.78v-17.656c29.252 0 52.965-23.713 52.965-52.965s-23.713-52.965-52.965-52.965v-35.31c0-48.755-39.523-123.587-88.276-123.587H353.104c-48.755 0-88.276 74.834-88.276 123.586V476.69a105.93 105.93 0 0 0 65.187 97.783l76.054 31.688v56.94a35.31 35.31 0 0 1-24.143 33.499l-75.257 27.69c-2.741-5.38-9.225-7.908-14.88-5.08l-34.678 17.339c-29.595 14.797-47.563 39.991-51.43 68.992l-21.133 158.492c-4.235 31.753 20.465 59.966 52.498 59.966H786.95c32.033 0 56.735-28.213 52.502-59.964z" fill="#FFD7A3"/><path d="M865.103 688.55s-52.966-307.493-52.966-423.723L600.276 582.619l229.516 123.586c-11.034 20.966-21.03 49.594 17.656 88.276 34.206 34.207 52.965 105.93 52.965 105.93 48.552-180.964-35.31-211.86-35.31-211.86z" fill="#9D6E48"/><path d="M827.316 726.732l48.744-24.029a17.649 17.649 0 1 0-15.607-31.66l-48.744 24.029a17.649 17.649 0 0 0-8.024 23.64 17.646 17.646 0 0 0 23.631 8.02z" fill="#FFB04D"/><path d="M423.722 582.62L211.861 264.826c0 116.23-52.966 423.723-52.966 423.723s-83.862 30.897-35.31 211.862c0 0 18.758-71.724 52.965-105.931 38.685-38.685 28.69-67.31 17.655-88.276L423.722 582.62z" fill="#8D5F3D"/><path d="M196.684 726.732l-48.744-24.029a17.649 17.649 0 1 1 15.607-31.66l48.744 24.029a17.649 17.649 0 1 1-15.607 31.66z" fill="#FFB04D"/><path d="M615.724 604.688H406.069V663.1c0 12.71-7.031 23.903-17.692 30.144 148.067 25.918 227.347-88.556 227.347-88.556z" fill="#FDC88E"/><path d="M770.295 738.252l-38.03-19.015c-6.444-3.222-13.963.468-15.854 7.42-24.474 89.955-106.707 156.106-204.415 156.106-97.733 0-179.983-66.184-204.436-156.175-1.88-6.916-9.361-10.586-15.77-7.382l-34.68 17.34c-29.594 14.797-47.562 39.99-51.429 68.992L184.548 964.03c-4.233 31.753 20.469 59.966 52.5 59.966h549.904c32.033 0 56.735-28.213 52.5-59.966l-21.133-158.492a88.271 88.271 0 0 0-48.024-67.286z" fill="#FFC84A"/><path d="M213.72 779.306c-4 8.241-6.812 17.011-8.043 26.234l-21.133 158.492c-4.231 31.753 20.47 59.966 52.504 59.966h80.746v-70.62a105.937 105.937 0 0 0-21.187-63.56l-82.886-110.512zm596.555 0c4 8.241 6.812 17.011 8.044 26.234l21.133 158.492c4.233 31.753-20.469 59.966-52.502 59.966h-80.744v-70.62a105.924 105.924 0 0 1 21.187-63.56l82.882-110.512z" fill="#FFB04D"/><path d="M759.172 353.103v-35.31c0-48.755-39.523-123.587-88.276-123.587H353.104c-48.755 0-88.276 74.834-88.276 123.586V476.69a105.93 105.93 0 0 0 65.187 97.783l114.077 47.532a176.525 176.525 0 0 0 135.81 0l114.083-47.535a105.924 105.924 0 0 0 65.187-97.78v-17.656c29.252 0 52.965-23.713 52.965-52.965s-23.713-52.965-52.965-52.965z" fill="#FFE1B2"/><path d="M635.586 423.723c-9.71 0-17.655-7.945-17.655-17.655v-17.655c0-9.71 7.945-17.655 17.655-17.655s17.655 7.945 17.655 17.655v17.655c0 9.71-7.947 17.655-17.655 17.655z" fill="#623F33"/><path d="M511.998 547.792c-31.389 0-60.75-7.724-80.552-21.197a17.649 17.649 0 0 1-4.663-24.525c5.473-8.05 16.466-10.147 24.525-4.663 13.88 9.439 36.568 15.077 60.69 15.077s46.81-5.638 60.69-15.077a17.637 17.637 0 0 1 24.525 4.663 17.649 17.649 0 0 1-4.664 24.525c-19.798 13.473-49.16 21.197-80.551 21.197z" fill="#E4B07B"/><path d="M553.929 251.398l-41.931-70.433S264.826 358.988 264.826 423.723v52.966a105.93 105.93 0 0 0 65.187 97.783l114.074 47.532a176.805 176.805 0 0 0 17.053 6.066c-50.414-36.879-83.972-69.12-103.636-90.2-14.305-15.338-22.058-35.577-22.058-56.551v-22.286c0-111.573 172.694-128.416 218.483-207.635z" fill="#FFD7A3"/><path d="M229.516 366.465l-.082.018.082-.018zM600.276 0C542.896 0 512 17.655 512 17.655S481.104 0 423.724 0 148.6 110.466 229.518 366.465c26.483 73.81 70.62 110.224 70.62 110.224-2.392-13.952-.139-31.135 5.266-49.364 15.13-51.023 52.189-93.3 100.175-116.312C462.866 283.54 512 245.137 512 194.206c0 122.114 282.482 172.26 282.482 172.26C875.402 110.465 657.655 0 600.276 0z" fill="#9D6E48"/><path d="M511.998 17.655S481.1 0 423.722 0 148.598 110.466 229.516 366.465c27.586 76.752 70.62 110.224 70.62 110.224C189.792 139.769 479.632 25.01 511.998 17.655z" fill="#8D5F3D"/><path d="M511.998 918.067c116.424 0 213.786-80.598 239.993-188.97l-19.726-9.862c-6.441-3.222-13.963.468-15.854 7.42C691.937 816.61 609.704 882.76 511.993 882.76c-97.732 0-179.983-66.185-204.435-156.175-1.88-6.916-9.362-10.586-15.77-7.382l-19.783 9.891c26.209 108.376 123.568 188.972 239.993 188.972z" fill="#FFB04D"/><path d="M512.097 791.575c-70.846 0-133.715-36.88-152.887-89.655-3.328-9.172 1.406-19.293 10.57-22.639 9.206-3.242 19.292 1.415 22.62 10.57 14.199 39.103 63.421 66.413 119.697 66.413 55.991 0 105.154-27.138 119.552-65.999 3.396-9.154 13.585-13.828 22.68-10.414 9.148 3.378 13.81 13.535 10.423 22.689-19.414 52.413-82.189 89.035-152.655 89.035z" fill="#FFB04D"/><path d="M460.63199999999995 809.23a51.465 51.465 0 1 0 102.93 0 51.465 51.465 0 1 0-102.93 0z" fill="#FFB04D"/><path d="M476.787 809.23a35.31 35.31 0 1 0 70.62 0 35.31 35.31 0 1 0-70.62 0z" fill="#FF6473"/><path d="M494.442 809.23c0-16.435 11.28-30.124 26.483-34.061-2.838-.735-5.76-1.25-8.828-1.25-19.5 0-35.31 15.808-35.31 35.31 0 19.5 15.81 35.311 35.31 35.311 3.068 0 5.99-.514 8.828-1.25-15.206-3.936-26.483-17.626-26.483-34.06z" fill="#F05467"/><path d="M512.097 800.402a8.828 8.828 0 1 0 17.655 0 8.828 8.828 0 1 0-17.655 0z" fill="#FFA0B5"/><path d="M388.412 423.723c-9.71 0-17.655-7.945-17.655-17.655v-17.655c0-9.71 7.945-17.655 17.655-17.655s17.655 7.945 17.655 17.655v17.655c0 9.71-7.945 17.655-17.655 17.655z" fill="#623F33"/></svg>