<svg class="icon" viewBox="0 0 1024 1024" xmlns="http://www.w3.org/2000/svg" width="128" height="128"><defs><style/></defs><path d="M848.404 0H178.152C121.69 0 75.753 45.947 75.753 102.4v893.671c0 15.42 12.5 27.928 27.926 27.928 1.565 0 3.09-.161 4.58-.407a27.915 27.915 0 0 0 22.011-5.575l114.982-90.563 114.98 90.562c10.136 7.962 24.411 7.962 34.565 0l119.308-93.963 115.636 91.073c10.146 7.963 24.417 7.963 34.565 0l114.89-90.49 117.088 92.216c5.484 4.318 12.058 6.235 18.506 5.948a27.93 27.93 0 0 0 8.085 1.2c15.43 0 27.927-12.508 27.927-27.927V102.399C950.804 45.943 904.869 0 848.404 0zM245.892 170.762c0-9.382 7.605-16.985 16.985-16.985h351.472c9.38 0 16.985 7.605 16.985 16.985v27.439c0 9.381-7.604 16.984-16.985 16.984H262.877c-9.382 0-16.985-7.604-16.985-16.984v-27.439zm521.981 518.716c0 9.382-7.605 16.985-16.985 16.985H262.877c-9.382 0-16.985-7.603-16.985-16.985v-27.439c0-9.381 7.605-16.984 16.985-16.984h488.01c9.38 0 16.985 7.603 16.985 16.984v27.439zm0-163.759c0 9.382-7.605 16.985-16.985 16.985H262.877c-9.382 0-16.985-7.603-16.985-16.985v-27.438c0-9.382 7.605-16.985 16.985-16.985h488.01c9.38 0 16.985 7.604 16.985 16.985v27.438zm0-163.758c0 9.381-7.605 16.984-16.985 16.984H262.877c-9.382 0-16.985-7.604-16.985-16.984v-27.439c0-9.382 7.605-16.985 16.985-16.985h488.01c9.38 0 16.985 7.605 16.985 16.985v27.439z" fill="#d4237a"/></svg>