<svg class="icon" viewBox="0 0 1024 1024" xmlns="http://www.w3.org/2000/svg" width="128" height="128"><defs><style/></defs><path d="M726.9 267.7H297.1c-16.2 0-29.4 13.2-29.4 29.4V727c0 16.2 13.2 29.4 29.4 29.4H727c16.2 0 29.4-13.2 29.4-29.4V297.1c-.1-16.2-13.2-29.4-29.5-29.4zm-370 70.5h148c11.9 0 21.6 9.6 21.6 21.6 0 11.9-9.6 21.6-21.6 21.6h-148c-11.9 0-21.6-9.6-21.6-21.6 0-12 9.6-21.6 21.6-21.6zm-21.6 224.6c0-11.9 9.6-21.6 21.6-21.6h245.7c11.9 0 21.6 9.6 21.6 21.6 0 11.9-9.7 21.6-21.6 21.6H356.9c-12-.1-21.6-9.7-21.6-21.6zm331.8 123H504.8c-11.9 0-21.6-9.6-21.6-21.6 0-11.9 9.6-21.6 21.6-21.6h162.3c11.9 0 21.6 9.6 21.6 21.6 0 12-9.6 21.6-21.6 21.6zm0-202.9H421.4c-11.9 0-21.6-9.6-21.6-21.6s9.6-21.6 21.6-21.6h245.7c11.9 0 21.6 9.6 21.6 21.6 0 11.9-9.6 21.6-21.6 21.6z" fill="#8a8a8a"/><path d="M512 0C229.2 0 0 229.2 0 512s229.2 512 512 512 512-229.2 512-512S794.8 0 512 0zm287.4 726.9c0 40-32.5 72.5-72.5 72.5H297.1c-40 0-72.5-32.5-72.5-72.5V297.1c0-40 32.5-72.5 72.5-72.5H727c40 0 72.5 32.5 72.5 72.5v429.8z" fill="#8a8a8a"/></svg>