<?xml version="1.0" standalone="no"?><!DOCTYPE svg PUBLIC "-//W3C//DTD SVG 1.1//EN" "http://www.w3.org/Graphics/SVG/1.1/DTD/svg11.dtd"><svg t="1555048735489" class="icon" style="" viewBox="0 0 1024 1024" version="1.1" xmlns="http://www.w3.org/2000/svg" p-id="2822" xmlns:xlink="http://www.w3.org/1999/xlink" width="128" height="128"><defs><style type="text/css"></style></defs><path d="M768 449.984h-64V128H64v768h513.536v64H64a64 64 0 0 1-64-64V128a64 64 0 0 1 64-64h640a64 64 0 0 1 64 64v321.984z" fill="#20A9E1" p-id="2823"></path><path d="M192 0h64v192H192zM512 0h64v192H512zM128 320h512v64H128zM128 512h320v64H128zM128 704h256v64H128z" fill="#20A9E1" p-id="2824"></path><path d="M736 960a224 224 0 1 0 0-448 224 224 0 0 0 0 448z m0 64a288 288 0 1 1 0-576 288 288 0 0 1 0 576z" fill="#20A9E1" p-id="2825"></path><path d="M704 576h64v192h-64z" fill="#20A9E1" p-id="2826"></path><path d="M704 704h192v64h-192z" fill="#20A9E1" p-id="2827"></path></svg>