<svg class="icon" viewBox="0 0 1024 1024" xmlns="http://www.w3.org/2000/svg" width="128" height="128"><defs><style/></defs><path d="M926.3 779.2c2.5 8.1 4.3 18.4 5.7 30.5 1.4 11.7 2.1 24.1 2.1 36.1 0 12.1-.7 23.7-2.8 34.4-1.8 10.6-4.6 18.8-8.1 24.1-2.5 3.5-9.2 7.1-20.9 10.6s-26.2 6.7-43.2 9.6c-17.4 3.2-36.5 5.7-57.4 8.5s-41.8 5-63.1 6.7c-21.3 1.8-41.5 3.2-61.3 4.6-19.5 1.1-36.9 1.8-51.7 1.8-14.9 0-31.9-.7-51.4-1.8-19.1-1.4-39.3-2.8-60.2-4.6-20.9-1.8-41.5-3.9-61.7-5.7-20.2-2.1-39-4.6-56-7.1-17-2.8-31.2-5.3-42.9-8.1s-18.8-5.3-22-7.8c-4.6-4.3-8.5-16.7-11.7-37.6-2.8-20.9-2.1-47.8 2.8-80.4 2.8-19.1 10.6-33.3 22.7-42.9 12.1-9.6 26.6-17.4 43.2-23.4 16.7-6 33.7-11 51.4-15.6 17.7-4.6 33.3-11 46.8-20.2 10.6-7.1 18.8-13.8 24.4-19.5 5.7-6 9.6-12.1 12.4-17.7 2.8-6 3.9-12.4 3.9-18.8s-.4-13.8-1.1-22.3c-1.4-11.7-5.3-21.3-12.4-28.4-7.1-6.7-14.9-13.5-23.4-20.2-4.2-3.5-7.8-8.5-11-15.2-3.2-6.4-6-13.1-8.5-19.5-2.5-7.1-4.6-15.2-7.1-24.1-3.5-1.4-7.1-3.2-10.6-5.3-3.2-2.5-6-6-9.2-10.6-3.5-4.6-6.4-11.3-9.2-19.5-3.2-8.2-4.2-16.3-3.5-23.7.7-7.4 2.1-13.5 4.6-18.4 2.5-6 5.7-11.3 9.6-15.9-.4-19.1.4-38.6 2.8-58.1 2.5-16.7 6-34 11-52.4 5-18.1 12.8-35.1 23.7-50.7 9.6-14.2 20.2-25.9 32.3-34.7C527 207 539.4 200 551.8 195c12.4-5 25.2-8.5 37.6-10.3 12.4-1.8 24.4-2.8 35.8-2.8 30.5 0 57.4 6.4 81.5 18.8 23.7 12.4 41.5 25.9 52.8 40 13.1 16.3 22.7 34 29.1 54.2 6.4 19.8 10.6 38.6 13.8 55.6 3.2 20.2 4.3 40.4 3.5 60.6 2.8 2.5 5.7 5.7 8.2 9.6 1.8 3.5 3.5 8.1 5 13.8 1.4 5.7 1.8 12.8.4 20.9-1.4 10.6-3.5 19.5-7.1 25.9-3.5 6.4-7.1 11.7-10.6 15.2-4.2 4.3-8.9 6.7-14.2 8.2-2.5 8.9-4.6 17-7.1 24.1-2.5 6.4-5.3 13.1-8.9 19.5-3.5 6.4-7.4 11.3-11.3 14.2-4.6 4.2-9.2 7.8-13.1 10.6-3.9 3.2-7.1 6-10.3 9.2-3.2 3.2-5.7 7.1-7.4 11-2.1 4.2-3.9 9.2-5 15.2-1.1 7.8-1.8 15.6-1.4 23.7.4 8.2 2.1 15.9 5.7 23.4 3.5 7.8 9.2 15.2 17.4 22.3 8.2 7.1 19.1 13.5 33.7 18.8 12.4 5.3 26.2 9.9 41.5 13.8 15.2 3.9 29.8 8.5 43.9 13.8 14.2 5.3 26.6 12.4 37.6 20.6 10.6 10.6 18.4 21.2 23.4 34.3" fill="#83E5D2"/><path d="M625.4 957c-15.1 0-32.3-.7-52-1.8l-11.9-.9c-15.7-1.1-32-2.4-48.7-3.8-11.8-1-23.5-2.1-35.1-3.2l-26.6-2.5c-20.5-2.2-39.5-4.7-56.6-7.2-18.6-3.1-32.3-5.6-43.9-8.3-13.9-3.4-21.5-6.2-26.1-9.8-5.5-5-11.1-13.7-15.8-44.5-3.1-22.9-2.2-51 2.8-83.7 3.2-21.5 12.1-38.2 26.6-49.8 12.9-10.2 28.4-18.6 46.3-25.1 15.2-5.5 31.8-10.5 52.3-15.9 17.5-4.5 31.7-10.6 43.4-18.7 11.8-7.9 18.9-14.2 22.9-18.2 4.1-4.4 7.6-9.3 10.4-14.9 1.8-3.9 2.8-8.5 2.8-13.9 0-6.1-.4-13.3-1-21.4-1.1-9.3-4.2-16.5-9.3-21.6-6.6-6.3-14.2-12.8-22.4-19.3-5.6-4.7-10.2-10.9-14.1-19.1-3.2-6.5-6.2-13.5-8.8-20.2-2.2-6.2-4-12.8-6-19.9l-.1-.2c-2.4-1.1-4.7-2.4-7.1-3.9-5.7-4.4-9.3-9.1-12.5-13.8-4.5-5.8-7.8-14.1-10.5-22.1-3.5-9-5-19-4.1-28.4.9-9.1 2.7-16.2 5.7-22.2 2.1-5.1 4.9-10.2 8.4-14.8-.2-20.1.8-38.4 3-55.8 2.7-18.2 6.4-35.7 11.3-53.9 5.4-19.7 13.9-37.9 25.3-54.1 10.6-15.6 22-27.9 34.7-37.2 12.3-9.3 25.4-16.8 38.9-22.2 13.5-5.4 26.9-9.1 40-11 14-2 26.2-2.9 37.3-2.9 32.1 0 60.3 6.5 86.5 20 25.1 13.1 44 27.5 56.3 42.9 14.1 17.5 24.2 36.4 30.9 57.7 5.6 17.4 10.3 36.1 14.1 56.9 3 19 4.3 38.5 3.9 58.1 2.3 2.5 4.5 5.2 6.3 8.2 2.9 5.7 4.9 11.1 6.3 17 1.9 7.6 2.1 16.4.5 25.4-1.7 12.7-4.3 22.1-8.3 29.3-4.4 7.9-8.5 13.7-12.5 17.7-3.8 3.8-8.1 6.7-12.9 8.8-1.9 7-3.8 13.5-5.8 19.3-2.6 6.6-5.6 14-9.6 21.2-4.5 8-9.3 14-14.5 17.7-4 3.8-8.9 7.6-13.1 10.6-3.1 2.6-6 5.2-9 8.1-2 2-3.8 4.7-5.2 7.8-2 4.1-3.3 8.1-4.1 12.6-1.1 8.3-1.5 15-1.3 21.4.3 7 1.8 13.3 4.6 19.2 3.1 6.7 8 13 14.7 18.8 7.5 6.5 17.7 12.2 30.3 16.8 12.3 5.3 25.8 9.8 40.4 13.5 15.4 3.9 30.2 8.6 45.1 14.2 14.2 5.3 27.7 12.7 40.2 22 13.8 13.3 22.2 25.5 27.4 39.3 2.8 9 4.7 19.2 6.3 33 1.4 12 2.2 25 2.2 37.4 0 14.3-1 26.2-3.1 36.5-1.9 11.7-5.2 21.2-9.8 28-4.3 6.1-12.5 10.7-26.8 15-12 3.6-27 7-44.6 9.9-15.4 2.8-32.4 5.2-50.9 7.6l-6.9.9c-19.2 2.6-40 4.8-63.6 6.8-19.5 1.6-38.2 3-56.5 4.3l-4.9.4c-19.5 1.2-37 1.9-52.1 1.9zm-286.7-53.9s3.8 2 17.1 5.2c10.9 2.6 24.2 5 42.1 8 16.7 2.4 35.3 4.9 55.3 7l26.6 2.5c11.5 1.1 23.1 2.2 34.9 3.2 16.7 1.4 32.9 2.6 48.5 3.8l11.7.8c19 1 35.9 1.7 50.6 1.7 14.7 0 31.9-.7 51.2-1.7l4.8-.3c18.2-1.3 36.8-2.6 56.2-4.3 23.3-1.9 43.7-4.1 62.5-6.7l6.9-.9c18.1-2.5 34.7-4.7 50-7.5 16.9-2.8 30.9-5.9 42-9.3 12.7-3.8 15.2-6.5 15.3-6.6 1.3-2 4.2-7.7 6.2-19.5 1.8-9.2 2.7-19.8 2.7-32.6 0-11.6-.7-23.7-2-34.9-1.5-12.3-3.2-21.7-5.3-28.6-3.9-10.2-10.4-19.6-20.9-29.7-9.8-7.1-21.5-13.6-33.8-18.2-14.2-5.3-28.2-9.7-42.8-13.5-15.8-4-30.2-8.9-43.1-14.4-14.5-5.3-27-12.3-36.5-20.6-9.1-7.9-15.8-16.6-20.1-26-3.9-8.3-6.2-17.6-6.6-27.4-.4-9.9.6-18.9 1.5-25.7 1.2-7 3.2-12.9 6-18.6 2.3-5.1 5.7-10 9.5-13.8 3.5-3.4 6.9-6.5 11.1-9.9 4.1-3 8.4-6.3 12.6-10.2 2.2-1.7 5.3-4.4 9.3-11.5 3.3-5.9 5.9-12.2 8.2-18.1 1.8-5.1 3.5-11.2 5.3-17.7l3.2-11.3 6-1.6c3.7-1 6.6-2.6 9.3-5.3 2.6-2.6 5.5-6.9 8.8-12.8 2.6-4.6 4.5-11.8 5.8-22 1.4-8.1.7-13.6-.1-16.8-1.1-4.3-2.5-8.4-4.2-11.6-1.2-1.8-3.3-4.3-5.6-6.2l-3.9-3.4.2-5.2c.7-19.9-.4-39.6-3.4-58.5-3.7-19.6-8.1-37.4-13.4-54-6-18.8-14.8-35.4-27.2-50.7-10.4-13-27-25.5-49.4-37.2-22.9-11.8-48-17.6-76.5-17.6-10.1 0-21.3.9-34.3 2.7-11.4 1.6-23.2 4.9-35.1 9.6-11.7 4.7-23.1 11.2-34 19.5-10.8 8-20.6 18.5-29.8 32.2-10.1 14.3-17.5 30.3-22.3 47.5-4.7 17.3-8.2 34-10.7 51.2-2.2 17.2-3.1 35.7-2.7 56.3l.1 4.1-2.6 3.1c-3.2 3.8-5.7 8.1-7.8 13.1-2.1 4.3-3.2 9.1-3.8 15.3-.6 6.1.4 12.5 2.8 18.8 2.1 6 4.7 13 7.7 16.8 3.3 4.7 5.4 7.2 7.3 8.7 1.9 1.1 4.9 2.6 8 3.8l5 2L476 508c1.8 6.6 3.5 12.7 5.4 18.2 2.2 5.7 4.9 12.2 8 18.3 2.6 5.5 5.3 9.3 8.2 11.8 8.5 6.7 16.6 13.7 23.9 20.6 8.7 8.8 13.9 20.5 15.7 34.9.8 9.3 1.1 17 1.1 23.6 0 8.6-1.7 16.5-4.9 23.4-3.9 7.8-8.5 14.4-14.3 20.5-6.9 6.9-15.9 14.1-26.3 21.1-13.8 9.4-30.2 16.5-50.1 21.7-19.8 5.2-35.9 10-50.4 15.3-15.7 5.7-29.2 13-40.2 21.7-10.2 8.1-16.3 19.9-18.7 36-4.7 30.7-5.6 56.7-2.8 77.4 3.6 25.2 7.6 30.1 8.1 30.6z"/><path d="M264.8 821.8c-6-.5-11.9-1-18-1.7-23.6-2.5-45.4-5.3-65-8.1-19.7-3.2-36.5-6-50.2-8.8-17.1-3.5-21.2-6.7-21.2-6.7-.5-.4-4.6-4.9-8.1-30.6-2.6-19.8-1.6-46.1 3.2-78.1 2.4-15.4 8.7-27.5 18.6-35.6 12.8-9.8 25.9-16.8 40.4-21.3 18.8-6.4 34.9-11.3 50.6-15.3 18-4.7 34.7-11.7 50.1-21 9.8-6.5 18.6-13.5 26.7-21.1 6.6-7 11.2-14.1 14.2-21.9 2.9-7.3 4.3-15.1 4.3-23.1 0-6.7-.4-14.5-1.1-22.2-1.2-14-6.3-25.7-15.2-35.1-6.9-6.9-14.9-14.2-24.1-22.1-3.5-2.5-6.4-5.9-8.5-10.2-3.1-6.1-5.7-12.5-8-18.2-1.9-5.4-3.6-11.5-5.4-18.1l-2.9-10.5-5-2c-3-1.2-6.1-2.7-8-3.8-1.9-1.5-4-4-7-8.2-2.6-3.8-5.4-9.8-7.9-16.9-2.5-7.1-3.5-13.6-3-18.8.6-6.6 1.8-11.7 3.9-16.3 2.6-6.8 5.3-10.4 7.1-12.2l3.3-3.3-.2-4.7c-.7-17.7.3-36.7 2.7-56.1 2.4-15.6 6.1-32.1 11.4-50.3 4.9-16.9 12.4-32.6 22.7-46.9 9.2-13.7 18.9-24.1 29.8-32.1 11.2-8.5 22.5-15 33.7-19.5 11.6-4.7 23.2-8 34.6-9.6 12.6-1.8 24.4-2.7 35-2.7 27.7 0 53.1 5.9 75.4 17.6 22.5 11.8 39.5 24.4 50.3 37.5.9 1.1 1.4 2.2 2.2 3.2 1.8-.8 3.4-1.8 5.2-2.5 5.2-2.1 10.4-3.6 15.6-5.3-1.9-3-3.7-6-6.1-9.1-12.9-15.5-32.1-30-57.2-43.1-25.4-13.3-54.2-20-85.5-20-11.6 0-24.4 1-38 2.9-13.2 1.8-26.6 5.5-39.7 11-12.9 5.2-25.9 12.7-38.6 22.2-12.8 9.4-24.2 21.6-34.7 37.2-11.5 16.1-20.1 34-25.7 53.3-5.6 19.2-9.5 36.6-12 53.4-2.4 19.2-3.5 37.9-3.1 55.6-3.3 4.3-6.2 9.5-8.4 15.3-2.9 6.2-4.7 13.6-5.6 22.7-.8 8.2.6 17.9 4.1 28 3.2 9.2 6.8 16.6 10.6 22.1 3 4.4 6.7 9.3 12.5 13.8a172 172 0 0 0 7.1 3.9l.1.3c2 7.1 3.8 13.7 6 19.9 2.6 6.7 5.6 13.7 8.9 20.4 3.8 7.5 9 13.7 14.6 17.6 8 6.9 15.6 13.8 21.9 20.2 5.3 5.6 8.3 12.8 9.1 21.9.7 7.1 1 14.2 1 20.2 0 5.3-.9 10.3-2.8 15.2-2 5.1-5.2 10-9.4 14.5-6.7 6.3-14.6 12.5-23 18.1-13.2 8-28 14.1-43.9 18.3-16.2 4.2-32.8 9.2-51.9 15.7-16.7 5.3-32.1 13.4-47.2 25-14.4 11.8-23.3 28.4-26.5 49.3-5.2 34.6-6.2 62.1-3.2 84.2 3.4 25 8.2 38.3 16 44.6 5.4 4.3 15.3 7.9 30.5 11 13.9 2.8 31.1 5.7 51.3 9 20 2.8 42.1 5.7 66 8.2 6.5.7 12.9 1.2 19.3 1.8.4-7.3.7-14.5 1.3-22z"/></svg>