<svg class="icon" viewBox="0 0 1024 1024" xmlns="http://www.w3.org/2000/svg" width="128" height="128"><defs><style/></defs><path d="M512 259.306c-78.578 0-142.529 63.95-142.529 142.529 0 66.927 46.345 124.405 111.072 139.033v164.924c0 17.347 14.11 31.328 31.328 31.328s31.327-14.11 31.327-31.328V540.74c64.727-14.5 111.072-72.106 111.072-139.034.259-78.449-63.692-142.399-142.27-142.399zm0 222.143c-44.014 0-79.744-35.73-79.744-79.744s35.73-79.743 79.744-79.743 79.744 35.729 79.744 79.743S556.014 481.45 512 481.45z" fill="#00b7d3"/><path d="M896.866 150.953h-.13c-22.006-1.035-56.312-3.495-95.795-9.45C672.264 115.871 578.539 55.546 544.234 30.82c-8.414-6.084-18.382-9.191-28.61-9.191-1.553 0-3.106.13-4.66.259-1.553-.13-3.107-.26-4.66-.26-10.356 0-20.195 3.237-28.739 9.192-34.305 24.726-127.9 85.051-256.707 110.683-39.483 5.955-73.918 8.415-95.925 9.45-26.28 1.295-46.733 22.784-46.733 49.063v344.089c0 48.674 23.69 114.955 66.928 186.672l.647 1.036c43.238 73.141 99.938 141.493 159.617 192.497 70.94 60.714 141.752 92.819 204.925 92.819h1.424c63.044 0 133.855-32.105 204.796-92.819 59.549-51.004 116.12-119.227 159.487-192.238l.777-1.424c43.108-71.718 66.798-138.128 66.798-186.673V200.016c0-26.279-20.583-47.768-46.733-49.063zM201.311 702.038c-.777-1.424-1.554-2.848-2.59-4.272l-.517-.906a147.278 147.278 0 0 0-2.848-4.66c-32.234-55.277-50.617-104.987-50.617-136.445V214.774c29.645-2.071 59.55-5.955 88.806-11.91 83.627-12.945 198.84-42.331 277.29-109.647 78.578 67.186 193.663 96.702 277.29 109.647 29.386 5.826 59.16 9.839 88.805 11.91v341.11c0 31.329-18.382 81.039-50.616 136.316-.906 1.553-1.942 3.236-2.848 4.79l-.518.906c-.906 1.294-1.812 2.718-2.589 4.272l-2.848 4.79c-23.56 38.188-52.3 76.507-83.368 111.2-.518.648-1.036 1.165-1.813 1.813l-.647.647-.777.777c-77.801 82.85-160.134 132.69-219.942 133.078-59.937-.388-142.27-50.228-220.33-133.208-.259-.259-.388-.518-.647-.647-1.036-1.165-2.201-2.2-3.237-3.107-30.033-33.529-57.995-71.07-81.556-108.87l-3.883-6.603z" fill="#00b7d3" data-spm-anchor-id="a313x.7781069.0.i20" class="selected"/></svg>