<svg class="icon" viewBox="0 0 1024 1024" xmlns="http://www.w3.org/2000/svg" width="128" height="128"><defs><style/></defs><path d="M236.8 601.6C102.4 659.2 0 806.4 0 979.2h748.8c0-172.8-96-320-236.8-377.6 64-44.8 102.4-121.6 102.4-211.2C614.4 243.2 512 128 377.6 128S134.4 243.2 134.4 390.4c0 89.6 44.8 166.4 102.4 211.2z" fill="#0076FF"/><path d="M812.8 851.2c-32-108.8-102.4-198.4-185.6-262.4C672 537.6 704 460.8 704 384c0-147.2-96-268.8-230.4-307.2C518.4 32 582.4 0 646.4 0c134.4 0 236.8 115.2 236.8 262.4 0 89.6-38.4 166.4-102.4 211.2 140.8 57.6 236.8 211.2 236.8 377.6H812.8z" fill="#0076FF"/></svg>