<svg class="icon" viewBox="0 0 1024 1024" xmlns="http://www.w3.org/2000/svg" width="128" height="128"><defs><style/></defs><path d="M804.571 292.425A292.498 292.498 0 0 0 512 0a292.571 292.571 0 0 0-292.571 292.425H804.57zM987.43 584.85H877.714V416.695l92.892-92.892a36.718 36.718 0 1 0-51.932-51.858l-73.143 73.143H187.246l-73.143-73.143a36.718 36.718 0 0 0-51.932 51.932l84.115 92.891V584.85H36.57a36.571 36.571 0 1 0 0 73.143h109.715v36.572c.365 56.466 15.506 111.908 43.885 160.768L84.114 960.658a36.718 36.718 0 1 0 51.932 51.932l98.011-97.28a327.753 327.753 0 0 0 241.372 108.178h4.388V390.363h73.143v633.125a327.753 327.753 0 0 0 237.714-108.251l98.012 98.011a36.718 36.718 0 0 0 51.931-51.931L837.486 858.258a322.998 322.998 0 0 0 40.228-164.498v-35.84H987.43a36.571 36.571 0 1 0 0-73.07z" fill="#5BB878"/></svg>