<svg class="icon" viewBox="0 0 1024 1024" xmlns="http://www.w3.org/2000/svg" width="128" height="128"><defs><style/></defs><path d="M65.566 782.29a65.8 65.8 0 1 0 128.626-27.82 65.8 65.8 0 1 0-128.626 27.82zM303.218 434.81a54.9 54.9 0 1 0 107.318-23.212 54.9 54.9 0 1 0-107.318 23.211z" fill="#29A1F7"/><path d="M116.659 753.498l202.054-313.543 36.902 23.78L153.561 777.28z" fill="#29A1F7"/><path d="M292.564 437.114a65.8 65.8 0 1 0 128.626-27.82 65.8 65.8 0 1 0-128.626 27.82z" fill="#29A1F7"/><path d="M116.659 753.498l202.054-313.543 36.902 23.78L153.561 777.28zM602.771 614.71a65.8 65.8 0 1 0 128.626-27.818 65.8 65.8 0 1 0-128.626 27.819zM840.422 267.23a54.9 54.9 0 1 0 107.32-23.21 54.9 54.9 0 1 0-107.32 23.21z" fill="#29A1F7"/><path d="M653.819 585.838l202.054-313.543 36.902 23.78L690.721 609.62z" fill="#29A1F7"/><path d="M829.769 269.535a65.8 65.8 0 1 0 128.626-27.82 65.8 65.8 0 1 0-128.626 27.82z" fill="#29A1F7"/><path d="M653.819 585.838l202.054-313.543 36.902 23.78L690.721 609.62zM639.6 571L380.8 402.9l-23.9 36.9 258.9 168z" fill="#29A1F7"/></svg>