<svg class="icon" viewBox="0 0 1024 1024" xmlns="http://www.w3.org/2000/svg" width="128" height="128"><defs><style/></defs><path d="M546.133 822.613v20.48c0 40.96-109.226 78.507-109.226 78.507h-327.68S0 887.467 0 843.093v-20.48C0 785.067 51.2 747.52 109.227 716.8c3.413 0 47.786 204.8 47.786 204.8h20.48s-40.96-211.627-37.546-215.04c17.066-6.827 27.306-13.653 44.373-20.48 6.827-3.413 34.133-17.067 17.067-58.027-40.96-37.546-64.854-68.266-64.854-150.186H409.6c0 81.92-23.893 112.64-61.44 150.186-17.067 47.787 10.24 58.027 13.653 58.027 17.067 6.827 30.72 13.653 47.787 20.48 3.413 0-37.547 215.04-37.547 215.04h20.48s40.96-204.8 44.374-204.8c58.026 30.72 109.226 68.267 109.226 105.813zM430.08 385.707c0-95.574-129.707-139.947-129.707-139.947-17.066-6.827-37.546-6.827-54.613 0 0 0-129.707 40.96-129.707 139.947 0 13.653-37.546 10.24-47.786 58.026h409.6c-17.067-47.786-47.787-44.373-47.787-58.026zM720.213 409.6c0 13.653 3.414 27.307 3.414 40.96-23.894 17.067-47.787 34.133-75.094 58.027-6.826 3.413-13.653 13.653-23.893 20.48l-23.893-27.307c10.24-10.24 17.066-27.307 17.066-44.373V307.2h-61.44v-34.133h95.574V460.8c23.893-17.067 44.373-34.133 68.266-51.2zM604.16 122.88c23.893 23.893 47.787 51.2 71.68 75.093l-34.133 27.307c-20.48-27.307-44.374-54.613-68.267-78.507l30.72-23.893z" fill="#cdcdcd"/><path d="M703.147 194.56h150.186c-10.24-20.48-20.48-44.373-34.133-68.267l34.133-17.066 34.134 68.266-34.134 17.067h160.427v34.133H805.547v71.68h174.08c-3.414 95.574-6.827 160.427-10.24 194.56-3.414 40.96-23.894 64.854-64.854 64.854-23.893 0-47.786 0-75.093-3.414-3.413-13.653-3.413-27.306-6.827-40.96 27.307 3.414 54.614 6.827 78.507 6.827 20.48 0 30.72-10.24 34.133-34.133 3.414-37.547 6.827-88.747 10.24-153.6H808.96c0 51.2-6.827 95.573-17.067 126.293-13.653 40.96-37.546 78.507-78.506 116.053-10.24-10.24-20.48-20.48-30.72-27.306 37.546-34.134 61.44-71.68 71.68-105.814 10.24-27.306 17.066-75.093 17.066-133.12v-81.92h-68.266V194.56z" fill="#cdcdcd"/></svg>